<svg width="156" height="66" viewBox="0 0 156 66" fill="none" xmlns="http://www.w3.org/2000/svg">
<g filter="url(#filter0_d_187_258)">
<rect x="3.99927" y="3.99994" width="140" height="50" rx="25" fill="#F25822"/>
</g>
<path d="M38.0443 32.0199H42.0493V33.9999H35.9743V23.4999H38.0443V32.0199ZM44.6238 31.0449C44.8838 31.9849 45.5888 32.4549 46.7388 32.4549C47.4788 32.4549 48.0388 32.2049 48.4188 31.7049L49.9788 32.6049C49.2388 33.6749 48.1488 34.2099 46.7088 34.2099C45.4688 34.2099 44.4738 33.8349 43.7238 33.0849C42.9738 32.3349 42.5988 31.3899 42.5988 30.2499C42.5988 29.1199 42.9688 28.1799 43.7088 27.4299C44.4488 26.6699 45.3988 26.2899 46.5588 26.2899C47.6588 26.2899 48.5638 26.6699 49.2738 27.4299C49.9938 28.1899 50.3538 29.1299 50.3538 30.2499C50.3538 30.4999 50.3288 30.7649 50.2788 31.0449H44.6238ZM44.5938 29.5449H48.4188C48.3088 29.0349 48.0788 28.6549 47.7288 28.4049C47.3888 28.1549 46.9988 28.0299 46.5588 28.0299C46.0388 28.0299 45.6088 28.1649 45.2688 28.4349C44.9288 28.6949 44.7038 29.0649 44.5938 29.5449ZM57.346 26.4999H59.281V33.9999H57.346V33.1149C56.766 33.8449 55.951 34.2099 54.901 34.2099C53.901 34.2099 53.041 33.8299 52.321 33.0699C51.611 32.2999 51.256 31.3599 51.256 30.2499C51.256 29.1399 51.611 28.2049 52.321 27.4449C53.041 26.6749 53.901 26.2899 54.901 26.2899C55.951 26.2899 56.766 26.6549 57.346 27.3849V26.4999ZM53.776 31.7799C54.166 32.1699 54.661 32.3649 55.261 32.3649C55.861 32.3649 56.356 32.1699 56.746 31.7799C57.146 31.3799 57.346 30.8699 57.346 30.2499C57.346 29.6299 57.146 29.1249 56.746 28.7349C56.356 28.3349 55.861 28.1349 55.261 28.1349C54.661 28.1349 54.166 28.3349 53.776 28.7349C53.386 29.1249 53.191 29.6299 53.191 30.2499C53.191 30.8699 53.386 31.3799 53.776 31.7799ZM62.9706 27.7899C63.1506 27.3099 63.4456 26.9499 63.8556 26.7099C64.2756 26.4699 64.7406 26.3499 65.2506 26.3499V28.5099C64.6606 28.4399 64.1306 28.5599 63.6606 28.8699C63.2006 29.1799 62.9706 29.6949 62.9706 30.4149V33.9999H61.0356V26.4999H62.9706V27.7899ZM70.5523 26.2899C71.3723 26.2899 72.0473 26.5649 72.5773 27.1149C73.1173 27.6649 73.3873 28.4249 73.3873 29.3949V33.9999H71.4523V29.6349C71.4523 29.1349 71.3173 28.7549 71.0473 28.4949C70.7773 28.2249 70.4173 28.0899 69.9673 28.0899C69.4673 28.0899 69.0673 28.2449 68.7673 28.5549C68.4673 28.8649 68.3173 29.3299 68.3173 29.9499V33.9999H66.3823V26.4999H68.3173V27.3399C68.7873 26.6399 69.5323 26.2899 70.5523 26.2899ZM89.1545 23.4999V33.9999H87.0995V27.1899L84.1445 32.0649H83.9045L80.9495 27.2049V33.9999H78.8795V23.4999H81.0095L84.0245 28.4649L87.0245 23.4999H89.1545ZM97.411 33.0699C96.641 33.8299 95.701 34.2099 94.591 34.2099C93.481 34.2099 92.541 33.8299 91.771 33.0699C91.011 32.2999 90.631 31.3599 90.631 30.2499C90.631 29.1399 91.011 28.2049 91.771 27.4449C92.541 26.6749 93.481 26.2899 94.591 26.2899C95.701 26.2899 96.641 26.6749 97.411 27.4449C98.181 28.2049 98.566 29.1399 98.566 30.2499C98.566 31.3599 98.181 32.2999 97.411 33.0699ZM93.136 31.7349C93.526 32.1249 94.011 32.3199 94.591 32.3199C95.171 32.3199 95.656 32.1249 96.046 31.7349C96.436 31.3449 96.631 30.8499 96.631 30.2499C96.631 29.6499 96.436 29.1549 96.046 28.7649C95.656 28.3749 95.171 28.1799 94.591 28.1799C94.011 28.1799 93.526 28.3749 93.136 28.7649C92.756 29.1549 92.566 29.6499 92.566 30.2499C92.566 30.8499 92.756 31.3449 93.136 31.7349ZM101.862 27.7899C102.042 27.3099 102.337 26.9499 102.747 26.7099C103.167 26.4699 103.632 26.3499 104.142 26.3499V28.5099C103.552 28.4399 103.022 28.5599 102.552 28.8699C102.092 29.1799 101.862 29.6949 101.862 30.4149V33.9999H99.9272V26.4999H101.862V27.7899ZM106.631 31.0449C106.891 31.9849 107.596 32.4549 108.746 32.4549C109.486 32.4549 110.046 32.2049 110.426 31.7049L111.986 32.6049C111.246 33.6749 110.156 34.2099 108.716 34.2099C107.476 34.2099 106.481 33.8349 105.731 33.0849C104.981 32.3349 104.606 31.3899 104.606 30.2499C104.606 29.1199 104.976 28.1799 105.716 27.4299C106.456 26.6699 107.406 26.2899 108.566 26.2899C109.666 26.2899 110.571 26.6699 111.281 27.4299C112.001 28.1899 112.361 29.1299 112.361 30.2499C112.361 30.4999 112.336 30.7649 112.286 31.0449H106.631ZM106.601 29.5449H110.426C110.316 29.0349 110.086 28.6549 109.736 28.4049C109.396 28.1549 109.006 28.0299 108.566 28.0299C108.046 28.0299 107.616 28.1649 107.276 28.4349C106.936 28.6949 106.711 29.0649 106.601 29.5449Z" fill="white"/>
<defs>
<filter id="filter0_d_187_258" x="-0.000732422" y="-6.10352e-05" width="156" height="66" filterUnits="userSpaceOnUse" color-interpolation-filters="sRGB">
<feFlood flood-opacity="0" result="BackgroundImageFix"/>
<feColorMatrix in="SourceAlpha" type="matrix" values="0 0 0 0 0 0 0 0 0 0 0 0 0 0 0 0 0 0 127 0" result="hardAlpha"/>
<feOffset dx="4" dy="4"/>
<feGaussianBlur stdDeviation="4"/>
<feColorMatrix type="matrix" values="0 0 0 0 0.94902 0 0 0 0 0.345098 0 0 0 0 0.133333 0 0 0 0.2 0"/>
<feBlend mode="normal" in2="BackgroundImageFix" result="effect1_dropShadow_187_258"/>
<feBlend mode="normal" in="SourceGraphic" in2="effect1_dropShadow_187_258" result="shape"/>
</filter>
</defs>
</svg>
